<?xml version="1.0" encoding="UTF-8" standalone="no"?>
<!DOCTYPE svg PUBLIC "-//W3C//DTD SVG 1.1//EN"
 "http://www.w3.org/Graphics/SVG/1.1/DTD/svg11.dtd">
<!-- Generated by graphviz version 2.36.0 (20140111.2315)
 -->
<!-- Title: Picture Pages: 1 -->
<svg width="1155pt" height="1664pt"
 viewBox="0.00 0.00 1155.00 1664.00" xmlns="http://www.w3.org/2000/svg" xmlns:xlink="http://www.w3.org/1999/xlink">
<g id="graph0" class="graph" transform="scale(1 1) rotate(0) translate(4 1660)">
<title>Picture</title>
<polygon fill="white" stroke="none" points="-4,4 -4,-1660 1151,-1660 1151,4 -4,4"/>
<!-- jessie -->
<g id="node1" class="node"><title>jessie</title>
<ellipse fill="none" stroke="black" cx="349" cy="-1638" rx="50.0684" ry="18"/>
<text text-anchor="middle" x="349" y="-1634.3" font-family="Times,serif" font-size="14.00">Debian 7.7</text>
</g>
<!-- apt -->
<g id="node5" class="node"><title>apt</title>
<polygon fill="none" stroke="black" points="472,-1584 404.642,-1548 472,-1512 539.358,-1548 472,-1584"/>
<text text-anchor="middle" x="472" y="-1544.3" font-family="Times,serif" font-size="14.00">apt&#45;get install</text>
</g>
<!-- jessie&#45;&gt;apt -->
<g id="edge1" class="edge"><title>jessie&#45;&gt;apt</title>
<path fill="none" stroke="black" d="M370.425,-1621.67C388.411,-1608.8 414.496,-1590.14 435.728,-1574.95"/>
<polygon fill="black" stroke="black" points="437.801,-1577.77 443.897,-1569.11 433.728,-1572.08 437.801,-1577.77"/>
</g>
<!-- trusty -->
<g id="node2" class="node"><title>trusty</title>
<ellipse fill="none" stroke="black" cx="477" cy="-1638" rx="59.1941" ry="18"/>
<text text-anchor="middle" x="477" y="-1634.3" font-family="Times,serif" font-size="14.00">Ubuntu 14.04</text>
</g>
<!-- trusty&#45;&gt;apt -->
<g id="edge2" class="edge"><title>trusty&#45;&gt;apt</title>
<path fill="none" stroke="black" d="M476.012,-1619.61C475.577,-1611.96 475.045,-1602.59 474.512,-1593.21"/>
<polygon fill="black" stroke="black" points="477.999,-1592.89 473.938,-1583.1 471.011,-1593.28 477.999,-1592.89"/>
</g>
<!-- fc20 -->
<g id="node3" class="node"><title>fc20</title>
<ellipse fill="none" stroke="black" cx="606" cy="-1638" rx="46.2191" ry="18"/>
<text text-anchor="middle" x="606" y="-1634.3" font-family="Times,serif" font-size="14.00">Fedora 20</text>
</g>
<!-- yum -->
<g id="node6" class="node"><title>yum</title>
<polygon fill="none" stroke="black" points="616,-1584 557.694,-1548 616,-1512 674.306,-1548 616,-1584"/>
<text text-anchor="middle" x="616" y="-1544.3" font-family="Times,serif" font-size="14.00">yum install</text>
</g>
<!-- fc20&#45;&gt;yum -->
<g id="edge4" class="edge"><title>fc20&#45;&gt;yum</title>
<path fill="none" stroke="black" d="M607.976,-1619.61C608.88,-1611.66 609.995,-1601.84 611.104,-1592.09"/>
<polygon fill="black" stroke="black" points="614.596,-1592.36 612.247,-1582.02 607.64,-1591.57 614.596,-1592.36"/>
</g>
<!-- sl6 -->
<g id="node4" class="node"><title>sl6</title>
<ellipse fill="none" stroke="black" cx="721" cy="-1638" rx="51.0191" ry="18"/>
<text text-anchor="middle" x="721" y="-1634.3" font-family="Times,serif" font-size="14.00">Scientific 6</text>
</g>
<!-- sl6&#45;&gt;yum -->
<g id="edge5" class="edge"><title>sl6&#45;&gt;yum</title>
<path fill="none" stroke="black" d="M701.741,-1620.86C686.75,-1608.3 665.615,-1590.58 648.08,-1575.89"/>
<polygon fill="black" stroke="black" points="650.224,-1573.12 640.312,-1569.38 645.728,-1578.48 650.224,-1573.12"/>
</g>
<!-- prereq -->
<g id="node7" class="node"><title>prereq</title>
<ellipse fill="none" stroke="black" cx="544" cy="-1458" rx="55.3436" ry="18"/>
<text text-anchor="middle" x="544" y="-1454.3" font-family="Times,serif" font-size="14.00">prerequisites</text>
</g>
<!-- apt&#45;&gt;prereq -->
<g id="edge3" class="edge"><title>apt&#45;&gt;prereq</title>
<path fill="none" stroke="black" stroke-dasharray="5,2" d="M492.056,-1522.49C501.996,-1510.34 513.967,-1495.71 523.911,-1483.55"/>
<polygon fill="black" stroke="black" points="526.798,-1485.55 530.422,-1475.6 521.38,-1481.12 526.798,-1485.55"/>
</g>
<!-- yum&#45;&gt;prereq -->
<g id="edge6" class="edge"><title>yum&#45;&gt;prereq</title>
<path fill="none" stroke="black" stroke-dasharray="5,2" d="M596.705,-1523.42C586.591,-1511.06 574.216,-1495.93 564,-1483.44"/>
<polygon fill="black" stroke="black" points="566.684,-1481.2 557.643,-1475.68 561.267,-1485.63 566.684,-1481.2"/>
</g>
<!-- adduser -->
<g id="node8" class="node"><title>adduser</title>
<polygon fill="none" stroke="black" points="544,-1404 479.739,-1368 544,-1332 608.261,-1368 544,-1404"/>
<text text-anchor="middle" x="544" y="-1364.3" font-family="Times,serif" font-size="14.00">adduser lbne</text>
</g>
<!-- prereq&#45;&gt;adduser -->
<g id="edge7" class="edge"><title>prereq&#45;&gt;adduser</title>
<path fill="none" stroke="black" d="M544,-1439.61C544,-1432.26 544,-1423.32 544,-1414.31"/>
<polygon fill="black" stroke="black" points="547.5,-1414.18 544,-1404.19 540.5,-1414.19 547.5,-1414.18"/>
</g>
<!-- userready -->
<g id="node9" class="node"><title>userready</title>
<ellipse fill="none" stroke="black" cx="544" cy="-1278" rx="47.169" ry="18"/>
<text text-anchor="middle" x="544" y="-1274.3" font-family="Times,serif" font-size="14.00">user ready</text>
</g>
<!-- adduser&#45;&gt;userready -->
<g id="edge8" class="edge"><title>adduser&#45;&gt;userready</title>
<path fill="none" stroke="black" d="M544,-1331.97C544,-1323.44 544,-1314.43 544,-1306.32"/>
<polygon fill="black" stroke="black" points="547.5,-1306.28 544,-1296.28 540.5,-1306.28 547.5,-1306.28"/>
</g>
<!-- tar -->
<g id="node10" class="node"><title>tar</title>
<polygon fill="none" stroke="black" points="191,-1224 -0.210853,-1188 191,-1152 382.211,-1188 191,-1224"/>
<text text-anchor="middle" x="191" y="-1191.8" font-family="Times,serif" font-size="14.00">pip install lbne&#45;build&#45;X.Y.Z&#45;rcN&#45;tar.gz</text>
<text text-anchor="middle" x="191" y="-1176.8" font-family="Times,serif" font-size="14.00">(release candidate)</text>
</g>
<!-- userready&#45;&gt;tar -->
<g id="edge9" class="edge"><title>userready&#45;&gt;tar</title>
<path fill="none" stroke="black" d="M505.551,-1267.41C452.133,-1254.1 353.863,-1229.6 281.326,-1211.52"/>
<polygon fill="black" stroke="black" points="281.818,-1208.03 271.268,-1209.01 280.125,-1214.83 281.818,-1208.03"/>
</g>
<!-- pip -->
<g id="node11" class="node"><title>pip</title>
<polygon fill="none" stroke="black" points="544,-1224 399.968,-1188 544,-1152 688.032,-1188 544,-1224"/>
<text text-anchor="middle" x="544" y="-1191.8" font-family="Times,serif" font-size="14.00">pip install lbne&#45;build=X.Y.Z</text>
<text text-anchor="middle" x="544" y="-1176.8" font-family="Times,serif" font-size="14.00">(official release)</text>
</g>
<!-- userready&#45;&gt;pip -->
<g id="edge10" class="edge"><title>userready&#45;&gt;pip</title>
<path fill="none" stroke="black" d="M544,-1259.61C544,-1252.26 544,-1243.32 544,-1234.31"/>
<polygon fill="black" stroke="black" points="547.5,-1234.18 544,-1224.19 540.5,-1234.19 547.5,-1234.18"/>
</g>
<!-- git -->
<g id="node12" class="node"><title>git</title>
<polygon fill="none" stroke="black" points="927,-1224 706.583,-1188 927,-1152 1147.42,-1188 927,-1224"/>
<text text-anchor="middle" x="927" y="-1191.8" font-family="Times,serif" font-size="14.00">git clone &amp;&amp; python setup.py &amp;&amp; pip install</text>
<text text-anchor="middle" x="927" y="-1176.8" font-family="Times,serif" font-size="14.00">(development)</text>
</g>
<!-- userready&#45;&gt;git -->
<g id="edge11" class="edge"><title>userready&#45;&gt;git</title>
<path fill="none" stroke="black" d="M583.545,-1267.91C640.639,-1254.8 748.025,-1230.12 827.583,-1211.84"/>
<polygon fill="black" stroke="black" points="828.67,-1215.18 837.632,-1209.53 827.102,-1208.36 828.67,-1215.18"/>
</g>
<!-- buildready -->
<g id="node13" class="node"><title>buildready</title>
<ellipse fill="none" stroke="black" cx="544" cy="-1098" rx="63.5411" ry="18"/>
<text text-anchor="middle" x="544" y="-1094.3" font-family="Times,serif" font-size="14.00">ready for build</text>
</g>
<!-- tar&#45;&gt;buildready -->
<g id="edge12" class="edge"><title>tar&#45;&gt;buildready</title>
<path fill="none" stroke="black" stroke-dasharray="5,2" d="M271.101,-1167.03C337.25,-1150.54 429.458,-1127.55 487.939,-1112.98"/>
<polygon fill="black" stroke="black" points="488.882,-1116.35 497.738,-1110.53 487.188,-1109.56 488.882,-1116.35"/>
</g>
<!-- pip&#45;&gt;buildready -->
<g id="edge13" class="edge"><title>pip&#45;&gt;buildready</title>
<path fill="none" stroke="black" stroke-dasharray="5,2" d="M544,-1151.97C544,-1143.44 544,-1134.43 544,-1126.32"/>
<polygon fill="black" stroke="black" points="547.5,-1126.28 544,-1116.28 540.5,-1126.28 547.5,-1126.28"/>
</g>
<!-- git&#45;&gt;buildready -->
<g id="edge14" class="edge"><title>git&#45;&gt;buildready</title>
<path fill="none" stroke="black" stroke-dasharray="5,2" d="M837.687,-1166.48C764.925,-1149.76 664.329,-1126.65 601.765,-1112.27"/>
<polygon fill="black" stroke="black" points="602.211,-1108.78 591.681,-1109.96 600.643,-1115.61 602.211,-1108.78"/>
</g>
<!-- waf_buildtools -->
<g id="node14" class="node"><title>waf_buildtools</title>
<polygon fill="none" stroke="black" points="544,-1044 435.581,-1008 544,-972 652.419,-1008 544,-1044"/>
<text text-anchor="middle" x="544" y="-1004.3" font-family="Times,serif" font-size="14.00">waf suite&#45;buildtools.cfg</text>
</g>
<!-- buildready&#45;&gt;waf_buildtools -->
<g id="edge15" class="edge"><title>buildready&#45;&gt;waf_buildtools</title>
<path fill="none" stroke="black" d="M544,-1079.61C544,-1072.26 544,-1063.32 544,-1054.31"/>
<polygon fill="black" stroke="black" points="547.5,-1054.18 544,-1044.19 540.5,-1054.19 547.5,-1054.18"/>
</g>
<!-- buildtools -->
<g id="node15" class="node"><title>buildtools</title>
<ellipse fill="none" stroke="black" cx="544" cy="-918" rx="64.0172" ry="18"/>
<text text-anchor="middle" x="544" y="-914.3" font-family="Times,serif" font-size="14.00">buildtools built</text>
</g>
<!-- waf_buildtools&#45;&gt;buildtools -->
<g id="edge16" class="edge"><title>waf_buildtools&#45;&gt;buildtools</title>
<path fill="none" stroke="black" d="M544,-971.967C544,-963.436 544,-954.434 544,-946.321"/>
<polygon fill="black" stroke="black" points="547.5,-946.281 544,-936.281 540.5,-946.281 547.5,-946.281"/>
</g>
<!-- test_buildtools -->
<g id="node16" class="node"><title>test_buildtools</title>
<polygon fill="none" stroke="black" points="338,-864 254.638,-828 338,-792 421.362,-828 338,-864"/>
<text text-anchor="middle" x="338" y="-824.3" font-family="Times,serif" font-size="14.00">test_buildtools.sh</text>
</g>
<!-- buildtools&#45;&gt;test_buildtools -->
<g id="edge25" class="edge"><title>buildtools&#45;&gt;test_buildtools</title>
<path fill="none" stroke="black" d="M509.983,-902.469C476.798,-888.292 425.933,-866.563 388.117,-850.409"/>
<polygon fill="black" stroke="black" points="389.374,-847.14 378.803,-846.43 386.624,-853.577 389.374,-847.14"/>
</g>
<!-- waf_compiler -->
<g id="node18" class="node"><title>waf_compiler</title>
<polygon fill="none" stroke="black" points="544,-864 439.797,-828 544,-792 648.203,-828 544,-864"/>
<text text-anchor="middle" x="544" y="-824.3" font-family="Times,serif" font-size="14.00">waf suite&#45;compiler.cfg</text>
</g>
<!-- buildtools&#45;&gt;waf_compiler -->
<g id="edge17" class="edge"><title>buildtools&#45;&gt;waf_compiler</title>
<path fill="none" stroke="black" d="M544,-899.614C544,-892.263 544,-883.323 544,-874.311"/>
<polygon fill="black" stroke="black" points="547.5,-874.185 544,-864.185 540.5,-874.185 547.5,-874.185"/>
</g>
<!-- buildtools_tested -->
<g id="node17" class="node"><title>buildtools_tested</title>
<ellipse fill="none" stroke="black" cx="367" cy="-738" rx="68.3417" ry="18"/>
<text text-anchor="middle" x="367" y="-734.3" font-family="Times,serif" font-size="14.00">buildtools tested</text>
</g>
<!-- test_buildtools&#45;&gt;buildtools_tested -->
<g id="edge26" class="edge"><title>test_buildtools&#45;&gt;buildtools_tested</title>
<path fill="none" stroke="black" d="M348.143,-796.222C351.405,-786.322 354.992,-775.437 358.154,-765.842"/>
<polygon fill="black" stroke="black" points="361.577,-766.639 361.383,-756.046 354.929,-764.448 361.577,-766.639"/>
</g>
<!-- compiler -->
<g id="node19" class="node"><title>compiler</title>
<ellipse fill="none" stroke="black" cx="544" cy="-738" rx="61.1419" ry="18"/>
<text text-anchor="middle" x="544" y="-734.3" font-family="Times,serif" font-size="14.00">compiler built</text>
</g>
<!-- waf_compiler&#45;&gt;compiler -->
<g id="edge18" class="edge"><title>waf_compiler&#45;&gt;compiler</title>
<path fill="none" stroke="black" d="M544,-791.967C544,-783.436 544,-774.434 544,-766.321"/>
<polygon fill="black" stroke="black" points="547.5,-766.281 544,-756.281 540.5,-766.281 547.5,-766.281"/>
</g>
<!-- test_compiler -->
<g id="node20" class="node"><title>test_compiler</title>
<polygon fill="none" stroke="black" points="342,-684 262.733,-648 342,-612 421.267,-648 342,-684"/>
<text text-anchor="middle" x="342" y="-644.3" font-family="Times,serif" font-size="14.00">test_compiler.sh</text>
</g>
<!-- compiler&#45;&gt;test_compiler -->
<g id="edge27" class="edge"><title>compiler&#45;&gt;test_compiler</title>
<path fill="none" stroke="black" d="M511.096,-722.665C478.425,-708.433 427.962,-686.449 390.66,-670.198"/>
<polygon fill="black" stroke="black" points="392.045,-666.984 381.479,-666.199 389.249,-673.401 392.045,-666.984"/>
</g>
<!-- waf_externals -->
<g id="node22" class="node"><title>waf_externals</title>
<polygon fill="none" stroke="black" points="544,-684 439.797,-648 544,-612 648.203,-648 544,-684"/>
<text text-anchor="middle" x="544" y="-644.3" font-family="Times,serif" font-size="14.00">waf suite&#45;externals.cfg</text>
</g>
<!-- compiler&#45;&gt;waf_externals -->
<g id="edge19" class="edge"><title>compiler&#45;&gt;waf_externals</title>
<path fill="none" stroke="black" d="M544,-719.614C544,-712.263 544,-703.323 544,-694.311"/>
<polygon fill="black" stroke="black" points="547.5,-694.185 544,-684.185 540.5,-694.185 547.5,-694.185"/>
</g>
<!-- compiler_tested -->
<g id="node21" class="node"><title>compiler_tested</title>
<ellipse fill="none" stroke="black" cx="371" cy="-558" rx="65.4659" ry="18"/>
<text text-anchor="middle" x="371" y="-554.3" font-family="Times,serif" font-size="14.00">compiler tested</text>
</g>
<!-- test_compiler&#45;&gt;compiler_tested -->
<g id="edge28" class="edge"><title>test_compiler&#45;&gt;compiler_tested</title>
<path fill="none" stroke="black" d="M352.143,-616.222C355.405,-606.322 358.992,-595.437 362.154,-585.842"/>
<polygon fill="black" stroke="black" points="365.577,-586.639 365.383,-576.046 358.929,-584.448 365.577,-586.639"/>
</g>
<!-- externals -->
<g id="node23" class="node"><title>externals</title>
<ellipse fill="none" stroke="black" cx="544" cy="-558" rx="61.1419" ry="18"/>
<text text-anchor="middle" x="544" y="-554.3" font-family="Times,serif" font-size="14.00">externals built</text>
</g>
<!-- waf_externals&#45;&gt;externals -->
<g id="edge20" class="edge"><title>waf_externals&#45;&gt;externals</title>
<path fill="none" stroke="black" d="M544,-611.967C544,-603.436 544,-594.434 544,-586.321"/>
<polygon fill="black" stroke="black" points="547.5,-586.281 544,-576.281 540.5,-586.281 547.5,-586.281"/>
</g>
<!-- test_externals -->
<g id="node24" class="node"><title>test_externals</title>
<polygon fill="none" stroke="black" points="367,-504 287.733,-468 367,-432 446.267,-468 367,-504"/>
<text text-anchor="middle" x="367" y="-464.3" font-family="Times,serif" font-size="14.00">test_externals.sh</text>
</g>
<!-- externals&#45;&gt;test_externals -->
<g id="edge29" class="edge"><title>externals&#45;&gt;test_externals</title>
<path fill="none" stroke="black" d="M513.974,-542.072C486.325,-528.326 444.894,-507.727 413.061,-491.9"/>
<polygon fill="black" stroke="black" points="414.449,-488.682 403.937,-487.364 411.333,-494.95 414.449,-488.682"/>
</g>
<!-- waf_art -->
<g id="node26" class="node"><title>waf_art</title>
<polygon fill="none" stroke="black" points="544,-504 464.853,-468 544,-432 623.147,-468 544,-504"/>
<text text-anchor="middle" x="544" y="-464.3" font-family="Times,serif" font-size="14.00">waf suite&#45;art.cfg</text>
</g>
<!-- externals&#45;&gt;waf_art -->
<g id="edge21" class="edge"><title>externals&#45;&gt;waf_art</title>
<path fill="none" stroke="black" d="M544,-539.614C544,-532.263 544,-523.323 544,-514.311"/>
<polygon fill="black" stroke="black" points="547.5,-514.185 544,-504.185 540.5,-514.185 547.5,-514.185"/>
</g>
<!-- externals_tested -->
<g id="node25" class="node"><title>externals_tested</title>
<ellipse fill="none" stroke="black" cx="395" cy="-378" rx="65.4659" ry="18"/>
<text text-anchor="middle" x="395" y="-374.3" font-family="Times,serif" font-size="14.00">externals tested</text>
</g>
<!-- test_externals&#45;&gt;externals_tested -->
<g id="edge30" class="edge"><title>test_externals&#45;&gt;externals_tested</title>
<path fill="none" stroke="black" d="M376.793,-436.222C379.943,-426.322 383.407,-415.437 386.459,-405.842"/>
<polygon fill="black" stroke="black" points="389.88,-406.636 389.576,-396.046 383.209,-404.514 389.88,-406.636"/>
</g>
<!-- art -->
<g id="node27" class="node"><title>art</title>
<ellipse fill="none" stroke="black" cx="544" cy="-378" rx="38.0212" ry="18"/>
<text text-anchor="middle" x="544" y="-374.3" font-family="Times,serif" font-size="14.00">art built</text>
</g>
<!-- waf_art&#45;&gt;art -->
<g id="edge22" class="edge"><title>waf_art&#45;&gt;art</title>
<path fill="none" stroke="black" d="M544,-431.967C544,-423.436 544,-414.434 544,-406.321"/>
<polygon fill="black" stroke="black" points="547.5,-406.281 544,-396.281 540.5,-406.281 547.5,-406.281"/>
</g>
<!-- test_art -->
<g id="node28" class="node"><title>test_art</title>
<polygon fill="none" stroke="black" points="378,-324 324.411,-288 378,-252 431.589,-288 378,-324"/>
<text text-anchor="middle" x="378" y="-284.3" font-family="Times,serif" font-size="14.00">test_art.sh</text>
</g>
<!-- art&#45;&gt;test_art -->
<g id="edge31" class="edge"><title>art&#45;&gt;test_art</title>
<path fill="none" stroke="black" d="M518.908,-364.37C497.98,-353.768 467.422,-338.133 441,-324 432.655,-319.536 423.741,-314.655 415.323,-309.992"/>
<polygon fill="black" stroke="black" points="416.874,-306.85 406.434,-305.048 413.472,-312.967 416.874,-306.85"/>
</g>
<!-- waf_larsoft -->
<g id="node30" class="node"><title>waf_larsoft</title>
<polygon fill="none" stroke="black" points="544,-324 449.967,-288 544,-252 638.033,-288 544,-324"/>
<text text-anchor="middle" x="544" y="-284.3" font-family="Times,serif" font-size="14.00">waf suite&#45;larsoft.cfg</text>
</g>
<!-- art&#45;&gt;waf_larsoft -->
<g id="edge23" class="edge"><title>art&#45;&gt;waf_larsoft</title>
<path fill="none" stroke="black" d="M544,-359.614C544,-352.263 544,-343.323 544,-334.311"/>
<polygon fill="black" stroke="black" points="547.5,-334.185 544,-324.185 540.5,-334.185 547.5,-334.185"/>
</g>
<!-- art_tested -->
<g id="node29" class="node"><title>art_tested</title>
<ellipse fill="none" stroke="black" cx="405" cy="-198" rx="42.3456" ry="18"/>
<text text-anchor="middle" x="405" y="-194.3" font-family="Times,serif" font-size="14.00">art tested</text>
</g>
<!-- test_art&#45;&gt;art_tested -->
<g id="edge32" class="edge"><title>test_art&#45;&gt;art_tested</title>
<path fill="none" stroke="black" d="M386.991,-257.697C390.133,-247.455 393.644,-236.013 396.725,-225.971"/>
<polygon fill="black" stroke="black" points="400.16,-226.707 399.747,-216.121 393.468,-224.654 400.16,-226.707"/>
</g>
<!-- larsoft -->
<g id="node31" class="node"><title>larsoft</title>
<ellipse fill="none" stroke="black" cx="544" cy="-198" rx="51.4931" ry="18"/>
<text text-anchor="middle" x="544" y="-194.3" font-family="Times,serif" font-size="14.00">larsoft built</text>
</g>
<!-- waf_larsoft&#45;&gt;larsoft -->
<g id="edge24" class="edge"><title>waf_larsoft&#45;&gt;larsoft</title>
<path fill="none" stroke="black" d="M544,-251.967C544,-243.436 544,-234.434 544,-226.321"/>
<polygon fill="black" stroke="black" points="547.5,-226.281 544,-216.281 540.5,-226.281 547.5,-226.281"/>
</g>
<!-- test_larsoft -->
<g id="node32" class="node"><title>test_larsoft</title>
<polygon fill="none" stroke="black" points="544,-144 475.524,-108 544,-72 612.476,-108 544,-144"/>
<text text-anchor="middle" x="544" y="-104.3" font-family="Times,serif" font-size="14.00">test_larsoft.sh</text>
</g>
<!-- larsoft&#45;&gt;test_larsoft -->
<g id="edge33" class="edge"><title>larsoft&#45;&gt;test_larsoft</title>
<path fill="none" stroke="black" d="M544,-179.614C544,-172.263 544,-163.323 544,-154.311"/>
<polygon fill="black" stroke="black" points="547.5,-154.185 544,-144.185 540.5,-154.185 547.5,-154.185"/>
</g>
<!-- larsoft_tested -->
<g id="node33" class="node"><title>larsoft_tested</title>
<ellipse fill="none" stroke="black" cx="544" cy="-18" rx="55.3436" ry="18"/>
<text text-anchor="middle" x="544" y="-14.3" font-family="Times,serif" font-size="14.00">larsoft tested</text>
</g>
<!-- test_larsoft&#45;&gt;larsoft_tested -->
<g id="edge34" class="edge"><title>test_larsoft&#45;&gt;larsoft_tested</title>
<path fill="none" stroke="black" d="M544,-71.9672C544,-63.4356 544,-54.4343 544,-46.321"/>
<polygon fill="black" stroke="black" points="547.5,-46.2809 544,-36.281 540.5,-46.281 547.5,-46.2809"/>
</g>
</g>
</svg>
